<?xml version="1.0" standalone="no"?>
<!DOCTYPE svg PUBLIC "-//W3C//DTD SVG 20010904//EN"
 "http://www.w3.org/TR/2001/REC-SVG-20010904/DTD/svg10.dtd">
<svg version="1.0" xmlns="http://www.w3.org/2000/svg"
 width="225.000000pt" height="225.000000pt" viewBox="0 0 225.000000 225.000000"
 preserveAspectRatio="xMidYMid meet">
<metadata>
Created by potrace 1.14, written by Peter Selinger 2001-2017
</metadata>
<g transform="translate(0.000000,225.000000) scale(0.100000,-0.100000)"
fill="#000000" stroke="none">
<path d="M774 1510 c-88 -23 -181 -69 -257 -127 -74 -58 -519 -608 -515 -638
3 -19 12 -20 158 -23 l155 -2 160 201 c183 230 213 259 304 303 l66 31 352 3
352 3 91 114 c70 88 90 119 85 135 -6 20 -13 20 -443 19 -394 0 -444 -2 -508
-19z"/>
<path d="M1634 1153 c-165 -208 -304 -384 -308 -391 -4 -7 -2 -19 4 -27 10
-12 43 -15 160 -15 l148 0 306 383 c207 258 306 388 304 402 -3 19 -12 20
-158 23 l-155 2 -301 -377z"/>
<path d="M893 1120 c-95 -19 -123 -43 -277 -237 -132 -165 -133 -163 68 -163
l152 0 52 65 53 65 139 0 139 0 91 112 c49 62 90 121 90 130 0 10 -9 22 -19
28 -23 12 -425 12 -488 0z"/>
</g>
</svg>
